<svg t="1589874408883" class="icon" viewBox="0 0 1024 1024" version="1.1" xmlns="http://www.w3.org/2000/svg" p-id="2812" width="200" height="200"><path d="M935.137011 218.082105a72.761496 72.761496 0 0 0-57.462307-63.907241 1356.809155 1356.809155 0 0 1-185.939353-42.765449c-59.630696-24.454609-115.526945-57.221375-166.002221-97.095639a76.255012 76.255012 0 0 0-88.783481 0 436.870141 436.870141 0 0 1-167.327348 96.493309c-57.582773 23.912512-118.659062 38.910535-180.699079 44.753139A67.701922 67.701922 0 0 0 31.942779 219.467465C30.557419 251.511435 30.135788 379.807781 30.135788 521.054229c0 255.508499 301.586764 502.765072 452.289796 502.765072 150.703032 0 406.211531-174.434845 447.109756-498.910159 10.179381-191.541024 3.132117-305.983775 3.132117-305.983774l2.409321-0.843263zM771.002014 415.4055l-314.898263 297.12952a42.946148 42.946148 0 0 1-52.3425 5.119807l-8.312157-6.987031L221.676812 529.788017a43.367779 43.367779 0 1 1 63.847008-58.787433l143.173904 150.160935 283.577089-268.277901a43.548478 43.548478 0 0 1 61.317221 2.590021 43.548478 43.548478 0 0 1-2.529787 61.377454" fill="#707070" p-id="2813"></path></svg>